<?xml version="1.0" encoding="UTF-8"?>
<svg id="_Слой_2" data-name="Слой 2" xmlns="http://www.w3.org/2000/svg" viewBox="0 0 578.12 246.8">
  <defs>
    <style>
      .cls-1, .cls-2 {
        fill: #e7b75b;
      }

      .cls-3 {
        fill: none;
        stroke: #e7b75b;
        stroke-miterlimit: 10;
        stroke-width: 1.47px;
      }

      .cls-3, .cls-2 {
        font-family: JosefinSans-ExtraLight, 'Josefin Sans';
        font-size: 226.32px;
        font-weight: 200;
        isolation: isolate;
      }

      .cls-4 {
        letter-spacing: .02em;
      }

      .cls-5 {
        letter-spacing: .03em;
      }

      .cls-6 {
        letter-spacing: .03em;
      }
    </style>
  </defs>
  <g id="_Слой_1-2" data-name="Слой 1">
    <g>
      <g>
        <path class="cls-1" d="M186.64,49.08l14.27,1.47-14.87,1.68c-14.9,1.69-26.66,13.45-28.33,28.33l-1.68,14.87-1.47-14.27c-1.56-15.15-13.54-27.13-28.7-28.7l-14.27-1.47,14.87-1.68c14.9-1.69,26.66-13.45,28.33-28.33l1.68-14.87,1.47,14.27c1.56,15.15,13.54,27.13,28.7,28.7Z"/>
        <path class="cls-1" d="M255.04,70.27l6.64.69-6.92.78c-6.94.78-12.4,6.26-13.2,13.2l-.78,6.92-.69-6.64c-.72-7.05-6.3-12.64-13.36-13.36l-6.64-.69,6.92-.78c6.94-.78,12.4-6.26,13.2-13.2l.78-6.92.69,6.64c.72,7.05,6.3,12.64,13.36,13.36Z"/>
        <path class="cls-1" d="M385.83,63.58l6.64.69-6.92.78c-6.94.78-12.4,6.26-13.2,13.2l-.78,6.92-.69-6.64c-.72-7.05-6.3-12.64-13.36-13.36l-6.64-.69,6.92-.78c6.94-.78,12.4-6.26,13.2-13.2l.78-6.92.69,6.64c.72,7.05,6.3,12.64,13.36,13.36Z"/>
        <path class="cls-1" d="M239.44,116.21l4.19.43-4.36.5c-4.38.5-7.83,3.95-8.33,8.33l-.5,4.36-.43-4.19c-.46-4.45-3.98-7.98-8.44-8.44l-4.19-.43,4.36-.5c4.38-.5,7.83-3.95,8.33-8.33l.5-4.36.43,4.19c.46,4.45,3.98,7.98,8.44,8.44Z"/>
        <path class="cls-1" d="M343.54,54.35l2.65.28-2.76.31c-2.76.31-4.95,2.5-5.26,5.26l-.31,2.76-.28-2.65c-.29-2.81-2.51-5.04-5.32-5.32l-2.65-.28,2.76-.31c2.76-.31,4.95-2.5,5.26-5.26l.31-2.76.28,2.65c.29,2.81,2.51,5.04,5.32,5.32Z"/>
        <text class="cls-2" transform="translate(.73 193.33)"><tspan class="cls-5" x="0" y="0">no</tspan><tspan class="cls-4" x="242.16" y="0">r</tspan><tspan class="cls-6" x="320.46" y="0">da</tspan></text>
        <text class="cls-3" transform="translate(.73 193.33)"><tspan class="cls-5" x="0" y="0">no</tspan><tspan class="cls-4" x="242.16" y="0">r</tspan><tspan class="cls-6" x="320.46" y="0">da</tspan></text>
      </g>
      <circle class="cls-1" cx="178.59" cy="149.14" r="5.68"/>
    </g>
  </g>
</svg>