<?xml version="1.0" encoding="UTF-8"?><svg id="_Слой_2" xmlns="http://www.w3.org/2000/svg" viewBox="0 0 578.12 246.8"><g id="_Слой_1-2"><path d="M186.64,49.08l14.27,1.47-14.87,1.68c-14.9,1.69-26.66,13.45-28.33,28.33l-1.68,14.87-1.47-14.27c-1.56-15.15-13.54-27.13-28.7-28.7l-14.27-1.47,14.87-1.68c14.9-1.69,26.66-13.45,28.33-28.33l1.68-14.87,1.47,14.27c1.56,15.15,13.54,27.13,28.7,28.7Z" style="fill:#e7b75b;"/><path d="M255.04,70.27l6.64.69-6.92.78c-6.94.78-12.4,6.26-13.2,13.2l-.78,6.92-.69-6.64c-.72-7.05-6.3-12.64-13.36-13.36l-6.64-.69,6.92-.78c6.94-.78,12.4-6.26,13.2-13.2l.78-6.92.69,6.64c.72,7.05,6.3,12.64,13.36,13.36Z" style="fill:#e7b75b;"/><path d="M385.83,63.58l6.64.69-6.92.78c-6.94.78-12.4,6.26-13.2,13.2l-.78,6.92-.69-6.64c-.72-7.05-6.3-12.64-13.36-13.36l-6.64-.69,6.92-.78c6.94-.78,12.4-6.26,13.2-13.2l.78-6.92.69,6.64c.72,7.05,6.3,12.64,13.36,13.36Z" style="fill:#e7b75b;"/><path d="M239.44,116.21l4.19.43-4.36.5c-4.38.5-7.83,3.95-8.33,8.33l-.5,4.36-.43-4.19c-.46-4.45-3.98-7.98-8.44-8.44l-4.19-.43,4.36-.5c4.38-.5,7.83-3.95,8.33-8.33l.5-4.36.43,4.19c.46,4.45,3.98,7.98,8.44,8.44Z" style="fill:#e7b75b;"/><path d="M343.54,54.35l2.65.28-2.76.31c-2.76.31-4.95,2.5-5.26,5.26l-.31,2.76-.28-2.65c-.29-2.81-2.51-5.04-5.32-5.32l-2.65-.28,2.76-.31c2.76-.31,4.95-2.5,5.26-5.26l.31-2.76.28,2.65c.29,2.81,2.51,5.04,5.32,5.32Z" style="fill:#e7b75b;"/><g style="isolation:isolate;"><path d="M27.67,106.43l1.13,27.61-1.13-4.3c2.56-7.84,7.39-14.03,14.48-18.56,7.09-4.53,14.94-6.79,23.54-6.79,8.15,0,14.71,2.42,19.69,7.24,4.98,4.83,7.54,11.02,7.7,18.56v63.14h-7.7v-61.33c-.15-6.03-2.08-11.01-5.77-14.94-3.7-3.92-8.94-6.03-15.73-6.34-6.19,0-11.92,1.44-17.2,4.3-5.28,2.87-9.54,6.83-12.79,11.88-3.25,5.06-4.87,10.98-4.87,17.77v48.66h-7.47v-86.91h6.11Z" style="fill:#e7b75b;"/><path d="M132.45,149.43c0-8.3,2.04-15.92,6.11-22.86,4.07-6.94,9.58-12.45,16.52-16.52,6.94-4.07,14.63-6.11,23.08-6.11s16.6,2.04,23.54,6.11c6.94,4.07,12.41,9.58,16.41,16.52,4,6.94,6,14.56,6,22.86s-2,16.15-6,23.08c-4,6.94-9.51,12.41-16.52,16.41-7.02,4-14.82,6-23.42,6s-16.33-1.96-23.2-5.88c-6.87-3.92-12.33-9.28-16.41-16.07-4.07-6.79-6.11-14.63-6.11-23.54ZM139.92,149.65c0,7.24,1.7,13.77,5.09,19.58,3.4,5.81,8,10.49,13.81,14.03,5.81,3.55,12.26,5.32,19.35,5.32s13.54-1.73,19.35-5.21c5.81-3.47,10.41-8.15,13.8-14.03,3.4-5.88,5.09-12.45,5.09-19.69s-1.7-13.81-5.09-19.69c-3.39-5.88-8-10.6-13.8-14.14-5.81-3.54-12.26-5.32-19.35-5.32s-13.96,1.85-19.69,5.54c-5.74,3.7-10.26,8.56-13.58,14.6-3.32,6.04-4.98,12.37-4.98,19.01Z" style="fill:#e7b75b;"/><path d="M269.82,106.43l.91,26.93-.91-2.94c1.81-5.43,4.75-10.07,8.83-13.92,4.07-3.85,8.67-6.82,13.81-8.94,5.13-2.11,10.33-3.17,15.62-3.17l-.45,7.02c-6.64.15-12.75,1.7-18.33,4.64-5.58,2.94-10,6.94-13.24,12-3.25,5.06-4.87,10.75-4.87,17.09v48.21h-7.47v-86.91h6.11Z" style="fill:#e7b75b;"/><path d="M377.55,194.92c-8.15,0-15.62-2-22.41-6-6.79-4-12.15-9.43-16.07-16.29-3.92-6.86-5.88-14.6-5.88-23.2,0-9.2,2-17.2,6-23.99,4-6.79,9.43-12.03,16.29-15.73,6.86-3.7,14.45-5.54,22.75-5.54,8.75,0,16.93,2.42,24.56,7.24,7.62,4.83,13.09,11.02,16.41,18.56l-1.13,3.85V22.23h7.47v171.1h-7.7v-28.29l1.36,4.3c-3.47,7.55-8.94,13.69-16.41,18.45-7.47,4.75-15.88,7.13-25.24,7.13ZM379.14,188.35c7.09,0,13.54-1.58,19.35-4.75,5.81-3.17,10.45-7.5,13.92-13.01,3.47-5.51,5.28-11.73,5.43-18.67v-9.28c-1.06-6.03-3.43-11.46-7.13-16.3-3.7-4.83-8.3-8.71-13.81-11.66-5.51-2.94-11.43-4.41-17.77-4.41-7.24,0-13.77,1.66-19.58,4.98-5.81,3.32-10.41,7.92-13.81,13.81-3.39,5.88-5.09,12.67-5.09,20.37,0,7.09,1.73,13.62,5.21,19.58,3.47,5.96,8.11,10.68,13.92,14.14,5.81,3.47,12.26,5.21,19.35,5.21Z" style="fill:#e7b75b;"/><path d="M509.49,194.92c-8.3,0-15.81-1.96-22.52-5.88-6.72-3.92-12.07-9.24-16.07-15.96-4-6.71-6-14.45-6-23.2,0-9.65,2.07-17.92,6.22-24.78,4.15-6.86,9.69-12.07,16.63-15.62,6.94-3.54,14.79-5.32,23.54-5.32,8.3,0,16.03,2.42,23.2,7.24,7.16,4.83,12.41,11.02,15.73,18.56l-1.13,3.17,1.36-26.71h6.34v86.91h-7.47v-28.29l1.36,3.62c-1.21,3.47-3.13,6.75-5.77,9.84-2.64,3.09-5.81,5.88-9.5,8.37-3.7,2.49-7.73,4.45-12.11,5.88-4.38,1.43-8.98,2.15-13.81,2.15ZM510.85,188.58c6.94,0,13.27-1.54,19.01-4.64,5.73-3.09,10.33-7.32,13.81-12.67,3.47-5.35,5.35-11.58,5.66-18.67v-10.86c-1.21-5.88-3.66-11.16-7.36-15.84-3.7-4.67-8.26-8.41-13.69-11.2-5.43-2.79-11.32-4.19-17.65-4.19-6.94,0-13.35,1.58-19.24,4.75-5.88,3.17-10.52,7.69-13.92,13.58-3.39,5.88-5.09,12.75-5.09,20.59,0,7.24,1.73,13.81,5.21,19.69,3.47,5.88,8.11,10.6,13.92,14.14,5.81,3.55,12.26,5.32,19.35,5.32Z" style="fill:#e7b75b;"/></g><g style="isolation:isolate;"><path d="M27.67,106.43l1.13,27.61-1.13-4.3c2.56-7.84,7.39-14.03,14.48-18.56,7.09-4.53,14.94-6.79,23.54-6.79,8.15,0,14.71,2.42,19.69,7.24,4.98,4.83,7.54,11.02,7.7,18.56v63.14h-7.7v-61.33c-.15-6.03-2.08-11.01-5.77-14.94-3.7-3.92-8.94-6.03-15.73-6.34-6.19,0-11.92,1.44-17.2,4.3-5.28,2.87-9.54,6.83-12.79,11.88-3.25,5.06-4.87,10.98-4.87,17.77v48.66h-7.47v-86.91h6.11Z" style="fill:none; stroke:#e7b75b; stroke-miterlimit:10; stroke-width:1.47px;"/><path d="M132.45,149.43c0-8.3,2.04-15.92,6.11-22.86,4.07-6.94,9.58-12.45,16.52-16.52,6.94-4.07,14.63-6.11,23.08-6.11s16.6,2.04,23.54,6.11c6.94,4.07,12.41,9.58,16.41,16.52,4,6.94,6,14.56,6,22.86s-2,16.15-6,23.08c-4,6.94-9.51,12.41-16.52,16.41-7.02,4-14.82,6-23.42,6s-16.33-1.96-23.2-5.88c-6.87-3.92-12.33-9.28-16.41-16.07-4.07-6.79-6.11-14.63-6.11-23.54ZM139.92,149.65c0,7.24,1.7,13.77,5.09,19.58,3.4,5.81,8,10.49,13.81,14.03,5.81,3.55,12.26,5.32,19.35,5.32s13.54-1.73,19.35-5.21c5.81-3.47,10.41-8.15,13.8-14.03,3.4-5.88,5.09-12.45,5.09-19.69s-1.7-13.81-5.09-19.69c-3.39-5.88-8-10.6-13.8-14.14-5.81-3.54-12.26-5.32-19.35-5.32s-13.96,1.85-19.69,5.54c-5.74,3.7-10.26,8.56-13.58,14.6-3.32,6.04-4.98,12.37-4.98,19.01Z" style="fill:none; stroke:#e7b75b; stroke-miterlimit:10; stroke-width:1.47px;"/><path d="M269.82,106.43l.91,26.93-.91-2.94c1.81-5.43,4.75-10.07,8.83-13.92,4.07-3.85,8.67-6.82,13.81-8.94,5.13-2.11,10.33-3.17,15.62-3.17l-.45,7.02c-6.64.15-12.75,1.7-18.33,4.64-5.58,2.94-10,6.94-13.24,12-3.25,5.06-4.87,10.75-4.87,17.09v48.21h-7.47v-86.91h6.11Z" style="fill:none; stroke:#e7b75b; stroke-miterlimit:10; stroke-width:1.47px;"/><path d="M377.55,194.92c-8.15,0-15.62-2-22.41-6-6.79-4-12.15-9.43-16.07-16.29-3.92-6.86-5.88-14.6-5.88-23.2,0-9.2,2-17.2,6-23.99,4-6.79,9.43-12.03,16.29-15.73,6.86-3.7,14.45-5.54,22.75-5.54,8.75,0,16.93,2.42,24.56,7.24,7.62,4.83,13.09,11.02,16.41,18.56l-1.13,3.85V22.23h7.47v171.1h-7.7v-28.29l1.36,4.3c-3.47,7.55-8.94,13.69-16.41,18.45-7.47,4.75-15.88,7.13-25.24,7.13ZM379.14,188.35c7.09,0,13.54-1.58,19.35-4.75,5.81-3.17,10.45-7.5,13.92-13.01,3.47-5.51,5.28-11.73,5.43-18.67v-9.28c-1.06-6.03-3.43-11.46-7.13-16.3-3.7-4.83-8.3-8.71-13.81-11.66-5.51-2.94-11.43-4.41-17.77-4.41-7.24,0-13.77,1.66-19.58,4.98-5.81,3.32-10.41,7.92-13.81,13.81-3.39,5.88-5.09,12.67-5.09,20.37,0,7.09,1.73,13.62,5.21,19.58,3.47,5.96,8.11,10.68,13.92,14.14,5.81,3.47,12.26,5.21,19.35,5.21Z" style="fill:none; stroke:#e7b75b; stroke-miterlimit:10; stroke-width:1.47px;"/><path d="M509.49,194.92c-8.3,0-15.81-1.96-22.52-5.88-6.72-3.92-12.07-9.24-16.07-15.96-4-6.71-6-14.45-6-23.2,0-9.65,2.07-17.92,6.22-24.78,4.15-6.86,9.69-12.07,16.63-15.62,6.94-3.54,14.79-5.32,23.54-5.32,8.3,0,16.03,2.42,23.2,7.24,7.16,4.83,12.41,11.02,15.73,18.56l-1.13,3.17,1.36-26.71h6.34v86.91h-7.47v-28.29l1.36,3.62c-1.21,3.47-3.13,6.75-5.77,9.84-2.64,3.09-5.81,5.88-9.5,8.37-3.7,2.49-7.73,4.45-12.11,5.88-4.38,1.43-8.98,2.15-13.81,2.15ZM510.85,188.58c6.94,0,13.27-1.54,19.01-4.64,5.73-3.09,10.33-7.32,13.81-12.67,3.47-5.35,5.35-11.58,5.66-18.67v-10.86c-1.21-5.88-3.66-11.16-7.36-15.84-3.7-4.67-8.26-8.41-13.69-11.2-5.43-2.79-11.32-4.19-17.65-4.19-6.94,0-13.35,1.58-19.24,4.75-5.88,3.17-10.52,7.69-13.92,13.58-3.39,5.88-5.09,12.75-5.09,20.59,0,7.24,1.73,13.81,5.21,19.69,3.47,5.88,8.11,10.6,13.92,14.14,5.81,3.55,12.26,5.32,19.35,5.32Z" style="fill:none; stroke:#e7b75b; stroke-miterlimit:10; stroke-width:1.47px;"/></g><circle cx="178.59" cy="149.14" r="5.68" style="fill:#e7b75b;"/></g></svg>